<svg width="175" height="48" viewBox="0 0 175 48" fill="none" xmlns="http://www.w3.org/2000/svg">
<path d="M6.16667 24C6.16667 22.5272 4.97276 21.3333 3.5 21.3333C2.02724 21.3333 0.833336 22.5272 0.833336 24C0.833336 25.4728 2.02724 26.6667 3.5 26.6667C4.97276 26.6667 6.16667 25.4728 6.16667 24ZM39.5 23.5L3.5 23.5L3.5 24.5L39.5 24.5L39.5 23.5Z" fill="black"/>
<path d="M104 16.5L93.5 16.5V6C93.5 4.80653 93.0259 3.66193 92.182 2.81802C91.3381 1.97411 90.1935 1.5 89 1.5L71 1.5C69.8065 1.5 68.6619 1.97411 67.818 2.81802C66.9741 3.66193 66.5 4.80653 66.5 6L66.5 45C66.5 45.3978 66.658 45.7794 66.9393 46.0607C67.2206 46.342 67.6022 46.5 68 46.5H77.75C77.9489 46.5 78.1397 46.421 78.2803 46.2803C78.421 46.1397 78.5 45.9489 78.5 45.75V39.0422C78.5 38.235 79.1206 37.5422 79.9278 37.5019C80.1306 37.4921 80.3333 37.5236 80.5236 37.5945C80.7139 37.6654 80.8878 37.7741 81.0348 37.9142C81.1818 38.0543 81.2988 38.2227 81.3788 38.4094C81.4587 38.596 81.5 38.797 81.5 39V45.75C81.5 45.9489 81.579 46.1397 81.7197 46.2803C81.8603 46.421 82.0511 46.5 82.25 46.5L107 46.5C107.398 46.5 107.779 46.342 108.061 46.0607C108.342 45.7794 108.5 45.3978 108.5 45L108.5 21C108.5 19.8065 108.026 18.6619 107.182 17.818C106.338 16.9741 105.193 16.5 104 16.5ZM72.695 40.4878C72.3843 40.5284 72.0688 40.4708 71.7925 40.3229C71.5163 40.175 71.2933 39.9444 71.1549 39.6633C71.0164 39.3823 70.9695 39.0649 71.0206 38.7558C71.0717 38.4467 71.2183 38.1614 71.4398 37.9398C71.6614 37.7183 71.9467 37.5717 72.2558 37.5206C72.5649 37.4695 72.8823 37.5164 73.1633 37.6549C73.4444 37.7933 73.675 38.0163 73.8229 38.2925C73.9708 38.5688 74.0284 38.8843 73.9878 39.195C73.9449 39.5228 73.7949 39.8273 73.5611 40.0611C73.3273 40.2949 73.0228 40.4449 72.695 40.4878ZM72.695 32.9878C72.3843 33.0284 72.0688 32.9708 71.7925 32.8229C71.5163 32.675 71.2933 32.4444 71.1549 32.1633C71.0164 31.8823 70.9695 31.5649 71.0206 31.2558C71.0717 30.9467 71.2183 30.6614 71.4398 30.4398C71.6614 30.2183 71.9467 30.0717 72.2558 30.0206C72.5649 29.9695 72.8823 30.0164 73.1633 30.1549C73.4444 30.2933 73.675 30.5163 73.8229 30.7925C73.9708 31.0688 74.0284 31.3843 73.9878 31.695C73.9449 32.0228 73.7949 32.3273 73.5611 32.5611C73.3273 32.7949 73.0228 32.9449 72.695 32.9878ZM72.695 25.4878C72.3843 25.5284 72.0688 25.4708 71.7925 25.3229C71.5163 25.175 71.2933 24.9444 71.1549 24.6633C71.0164 24.3823 70.9695 24.0649 71.0206 23.7558C71.0717 23.4467 71.2183 23.1614 71.4398 22.9398C71.6614 22.7183 71.9467 22.5717 72.2558 22.5206C72.5649 22.4695 72.8823 22.5164 73.1633 22.6549C73.4444 22.7933 73.675 23.0163 73.8229 23.2925C73.9708 23.5688 74.0284 23.8843 73.9878 24.195C73.9449 24.5228 73.7949 24.8273 73.5611 25.0611C73.3273 25.2949 73.0228 25.4449 72.695 25.4878ZM72.695 17.9878C72.3843 18.0284 72.0688 17.9708 71.7925 17.8229C71.5163 17.675 71.2933 17.4444 71.1549 17.1633C71.0164 16.8823 70.9695 16.5649 71.0206 16.2558C71.0717 15.9467 71.2183 15.6614 71.4398 15.4398C71.6614 15.2183 71.9467 15.0717 72.2558 15.0206C72.5649 14.9695 72.8823 15.0164 73.1633 15.1549C73.4444 15.2933 73.675 15.5163 73.8229 15.7925C73.9708 16.0688 74.0284 16.3843 73.9878 16.695C73.9449 17.0228 73.7949 17.3273 73.5611 17.5611C73.3273 17.7949 73.0228 17.9449 72.695 17.9878ZM72.695 10.4878C72.3843 10.5284 72.0688 10.4708 71.7925 10.3229C71.5163 10.175 71.2933 9.94439 71.1549 9.66334C71.0164 9.38228 70.9695 9.06493 71.0206 8.75582C71.0717 8.44671 71.2183 8.16136 71.4398 7.93982C71.6614 7.71828 71.9467 7.57167 72.2558 7.52057C72.5649 7.46946 72.8823 7.51644 73.1633 7.65489C73.4444 7.79334 73.675 8.01632 73.8229 8.29254C73.9708 8.56875 74.0284 8.88434 73.9878 9.195C73.9449 9.52285 73.7949 9.82734 73.5611 10.0611C73.3273 10.2949 73.0228 10.4449 72.695 10.4878ZM80.195 32.9878C79.8843 33.0284 79.5688 32.9708 79.2925 32.8229C79.0163 32.675 78.7933 32.4444 78.6549 32.1633C78.5164 31.8823 78.4695 31.5649 78.5206 31.2558C78.5717 30.9467 78.7183 30.6614 78.9398 30.4398C79.1614 30.2183 79.4467 30.0717 79.7558 30.0206C80.0649 29.9695 80.3823 30.0164 80.6633 30.1549C80.9444 30.2933 81.175 30.5163 81.3229 30.7925C81.4708 31.0688 81.5284 31.3843 81.4878 31.695C81.4449 32.0228 81.2949 32.3273 81.0611 32.5611C80.8273 32.7949 80.5228 32.9449 80.195 32.9878ZM80.195 25.4878C79.8843 25.5284 79.5688 25.4708 79.2925 25.3229C79.0163 25.175 78.7933 24.9444 78.6549 24.6633C78.5164 24.3823 78.4695 24.0649 78.5206 23.7558C78.5717 23.4467 78.7183 23.1614 78.9398 22.9398C79.1614 22.7183 79.4467 22.5717 79.7558 22.5206C80.0649 22.4695 80.3823 22.5164 80.6633 22.6549C80.9444 22.7933 81.175 23.0163 81.3229 23.2925C81.4708 23.5688 81.5284 23.8843 81.4878 24.195C81.4449 24.5228 81.2949 24.8273 81.0611 25.0611C80.8273 25.2949 80.5228 25.4449 80.195 25.4878ZM80.195 17.9878C79.8843 18.0284 79.5688 17.9708 79.2925 17.8229C79.0163 17.675 78.7933 17.4444 78.6549 17.1633C78.5164 16.8823 78.4695 16.5649 78.5206 16.2558C78.5717 15.9467 78.7183 15.6614 78.9398 15.4398C79.1614 15.2183 79.4467 15.0717 79.7558 15.0206C80.0649 14.9695 80.3823 15.0164 80.6633 15.1549C80.9444 15.2933 81.175 15.5163 81.3229 15.7925C81.4708 16.0688 81.5284 16.3843 81.4878 16.695C81.4449 17.0228 81.2949 17.3273 81.0611 17.5611C80.8273 17.7949 80.5228 17.9449 80.195 17.9878ZM80.195 10.4878C79.8843 10.5284 79.5688 10.4708 79.2925 10.3229C79.0163 10.175 78.7933 9.94439 78.6549 9.66334C78.5164 9.38228 78.4695 9.06493 78.5206 8.75582C78.5717 8.44671 78.7183 8.16136 78.9398 7.93982C79.1614 7.71828 79.4467 7.57167 79.7558 7.52057C80.0649 7.46946 80.3823 7.51644 80.6633 7.65489C80.9444 7.79334 81.175 8.01632 81.3229 8.29254C81.4708 8.56875 81.5284 8.88434 81.4878 9.195C81.4449 9.52285 81.2949 9.82734 81.0611 10.0611C80.8273 10.2949 80.5228 10.4449 80.195 10.4878ZM87.695 40.4878C87.3843 40.5284 87.0688 40.4708 86.7925 40.3229C86.5163 40.175 86.2933 39.9444 86.1549 39.6633C86.0164 39.3823 85.9695 39.0649 86.0206 38.7558C86.0717 38.4467 86.2183 38.1614 86.4398 37.9398C86.6614 37.7183 86.9467 37.5717 87.2558 37.5206C87.5649 37.4695 87.8823 37.5164 88.1633 37.6549C88.4444 37.7933 88.675 38.0163 88.8229 38.2925C88.9708 38.5688 89.0284 38.8843 88.9878 39.195C88.9449 39.5228 88.7949 39.8273 88.5611 40.0611C88.3273 40.2949 88.0228 40.4449 87.695 40.4878ZM87.695 32.9878C87.3843 33.0284 87.0688 32.9708 86.7925 32.8229C86.5163 32.675 86.2933 32.4444 86.1549 32.1633C86.0164 31.8823 85.9695 31.5649 86.0206 31.2558C86.0717 30.9467 86.2183 30.6614 86.4398 30.4398C86.6614 30.2183 86.9467 30.0717 87.2558 30.0206C87.5649 29.9695 87.8823 30.0164 88.1633 30.1549C88.4444 30.2933 88.675 30.5163 88.8229 30.7925C88.9708 31.0688 89.0284 31.3843 88.9878 31.695C88.9449 32.0228 88.7949 32.3273 88.5611 32.5611C88.3273 32.7949 88.0228 32.9449 87.695 32.9878ZM87.695 25.4878C87.3843 25.5284 87.0688 25.4708 86.7925 25.3229C86.5163 25.175 86.2933 24.9444 86.1549 24.6633C86.0164 24.3823 85.9695 24.0649 86.0206 23.7558C86.0717 23.4467 86.2183 23.1614 86.4398 22.9398C86.6614 22.7183 86.9467 22.5717 87.2558 22.5206C87.5649 22.4695 87.8823 22.5164 88.1633 22.6549C88.4444 22.7933 88.675 23.0163 88.8229 23.2925C88.9708 23.5688 89.0284 23.8843 88.9878 24.195C88.9449 24.5228 88.7949 24.8273 88.5611 25.0611C88.3273 25.2949 88.0228 25.4449 87.695 25.4878ZM87.695 17.9878C87.3843 18.0284 87.0688 17.9708 86.7925 17.8229C86.5163 17.675 86.2933 17.4444 86.1549 17.1633C86.0164 16.8823 85.9695 16.5649 86.0206 16.2558C86.0717 15.9467 86.2183 15.6614 86.4398 15.4398C86.6614 15.2183 86.9467 15.0717 87.2558 15.0206C87.5649 14.9695 87.8823 15.0164 88.1633 15.1549C88.4444 15.2933 88.675 15.5163 88.8229 15.7925C88.9708 16.0688 89.0284 16.3843 88.9878 16.695C88.9449 17.0228 88.7949 17.3273 88.5611 17.5611C88.3273 17.7949 88.0228 17.9449 87.695 17.9878ZM87.695 10.4878C87.3843 10.5284 87.0688 10.4708 86.7925 10.3229C86.5163 10.175 86.2933 9.94439 86.1549 9.66334C86.0164 9.38228 85.9695 9.06493 86.0206 8.75582C86.0717 8.44671 86.2183 8.16136 86.4398 7.93982C86.6614 7.71828 86.9467 7.57167 87.2558 7.52057C87.5649 7.46946 87.8823 7.51644 88.1633 7.65489C88.4444 7.79334 88.675 8.01632 88.8229 8.29254C88.9708 8.56875 89.0284 8.88434 88.9878 9.195C88.9449 9.52285 88.7949 9.82734 88.5611 10.0611C88.3273 10.2949 88.0228 10.4449 87.695 10.4878ZM105.125 43.5L93.5 43.5L93.5 19.5L104 19.5C104.398 19.5 104.779 19.658 105.061 19.9393C105.342 20.2206 105.5 20.6022 105.5 21L105.5 43.125C105.5 43.2245 105.46 43.3198 105.39 43.3902C105.32 43.4605 105.224 43.5 105.125 43.5Z" fill="black"/>
<path d="M101 37.5C100.703 37.5 100.413 37.588 100.167 37.7528C99.92 37.9176 99.7277 38.1519 99.6142 38.426C99.5006 38.7001 99.4709 39.0017 99.5288 39.2926C99.5867 39.5836 99.7296 39.8509 99.9393 40.0607C100.149 40.2704 100.416 40.4133 100.707 40.4712C100.998 40.5291 101.3 40.4993 101.574 40.3858C101.848 40.2723 102.082 40.08 102.247 39.8334C102.412 39.5867 102.5 39.2967 102.5 39C102.5 38.6022 102.342 38.2206 102.061 37.9393C101.779 37.658 101.398 37.5 101 37.5ZM101 30C100.703 30 100.413 30.088 100.167 30.2528C99.92 30.4176 99.7277 30.6519 99.6142 30.926C99.5006 31.2001 99.4709 31.5017 99.5288 31.7926C99.5867 32.0836 99.7296 32.3509 99.9393 32.5607C100.149 32.7704 100.416 32.9133 100.707 32.9712C100.998 33.0291 101.3 32.9993 101.574 32.8858C101.848 32.7723 102.082 32.58 102.247 32.3334C102.412 32.0867 102.5 31.7967 102.5 31.5C102.5 31.1022 102.342 30.7206 102.061 30.4393C101.779 30.158 101.398 30 101 30ZM101 22.5C100.703 22.5 100.413 22.588 100.167 22.7528C99.92 22.9176 99.7277 23.1519 99.6142 23.426C99.5006 23.7001 99.4709 24.0017 99.5288 24.2926C99.5867 24.5836 99.7296 24.8509 99.9393 25.0607C100.149 25.2704 100.416 25.4133 100.707 25.4712C100.998 25.5291 101.3 25.4994 101.574 25.3858C101.848 25.2723 102.082 25.08 102.247 24.8334C102.412 24.5867 102.5 24.2967 102.5 24C102.5 23.6022 102.342 23.2206 102.061 22.9393C101.779 22.658 101.398 22.5 101 22.5ZM95 37.5C94.7033 37.5 94.4133 37.588 94.1666 37.7528C93.92 37.9176 93.7277 38.1519 93.6142 38.426C93.5006 38.7001 93.4709 39.0017 93.5288 39.2926C93.5867 39.5836 93.7296 39.8509 93.9393 40.0607C94.1491 40.2704 94.4164 40.4133 94.7074 40.4712C94.9983 40.5291 95.2999 40.4993 95.574 40.3858C95.8481 40.2723 96.0824 40.08 96.2472 39.8334C96.412 39.5867 96.5 39.2967 96.5 39C96.5 38.6022 96.342 38.2206 96.0607 37.9393C95.7794 37.658 95.3978 37.5 95 37.5ZM95 30C94.7033 30 94.4133 30.088 94.1666 30.2528C93.92 30.4176 93.7277 30.6519 93.6142 30.926C93.5006 31.2001 93.4709 31.5017 93.5288 31.7926C93.5867 32.0836 93.7296 32.3509 93.9393 32.5607C94.1491 32.7704 94.4164 32.9133 94.7074 32.9712C94.9983 33.0291 95.2999 32.9993 95.574 32.8858C95.8481 32.7723 96.0824 32.58 96.2472 32.3334C96.412 32.0867 96.5 31.7967 96.5 31.5C96.5 31.1022 96.342 30.7206 96.0607 30.4393C95.7794 30.158 95.3978 30 95 30ZM95 22.5C94.7033 22.5 94.4133 22.588 94.1666 22.7528C93.92 22.9176 93.7277 23.1519 93.6142 23.426C93.5006 23.7001 93.4709 24.0017 93.5288 24.2926C93.5867 24.5836 93.7296 24.8509 93.9393 25.0607C94.1491 25.2704 94.4164 25.4133 94.7074 25.4712C94.9983 25.5291 95.2999 25.4994 95.574 25.3858C95.8481 25.2723 96.0824 25.08 96.2472 24.8334C96.412 24.5867 96.5 24.2967 96.5 24C96.5 23.6022 96.342 23.2206 96.0607 22.9393C95.7794 22.658 95.3978 22.5 95 22.5Z" fill="black"/>
<path d="M174.167 24C174.167 22.5272 172.973 21.3333 171.5 21.3333C170.027 21.3333 168.833 22.5272 168.833 24C168.833 25.4728 170.027 26.6667 171.5 26.6667C172.973 26.6667 174.167 25.4728 174.167 24ZM171.5 23.5L135.5 23.5L135.5 24.5L171.5 24.5L171.5 23.5Z" fill="black"/>
</svg>
