<svg width="25" height="24" viewBox="0 0 25 24" fill="none" xmlns="http://www.w3.org/2000/svg">
<path fill-rule="evenodd" clip-rule="evenodd" d="M16.9109 2.76862L16.9119 3.51824C19.6665 3.73413 21.4862 5.61119 21.4891 8.48975L21.5 16.9155C21.5039 20.054 19.5322 21.985 16.3718 21.99L8.65188 22C5.51119 22.004 3.51482 20.027 3.51087 16.8795L3.50001 8.55272C3.49606 5.65517 5.25153 3.78311 8.00617 3.53024L8.00518 2.78061C8.0042 2.34083 8.33001 2.01 8.76444 2.01C9.19886 2.009 9.52468 2.33883 9.52567 2.77861L9.52666 3.47826L15.3914 3.47027L15.3904 2.77062C15.3894 2.33084 15.7152 2.001 16.1497 2C16.5742 1.999 16.9099 2.32884 16.9109 2.76862ZM5.02148 8.86157L19.9696 8.84158V8.49175C19.9272 6.34283 18.849 5.21539 16.9138 5.04748L16.9148 5.81709C16.9148 6.24688 16.5801 6.5877 16.1556 6.5877C15.7212 6.5887 15.3943 6.24887 15.3943 5.81909L15.3934 5.0095L9.52863 5.01749L9.52962 5.82609C9.52962 6.25687 9.20479 6.5967 8.77036 6.5967C8.33594 6.5977 8.00913 6.25887 8.00913 5.82809L8.00815 5.05847C6.08286 5.25137 5.01753 6.38281 5.02049 8.55072L5.02148 8.86157ZM15.7399 13.4043V13.4153C15.7498 13.8751 16.125 14.2239 16.5801 14.2139C17.0244 14.2029 17.3789 13.8221 17.369 13.3623C17.3483 12.9225 16.9918 12.5637 16.5485 12.5647C16.0944 12.5747 15.7389 12.9445 15.7399 13.4043ZM16.5554 17.892C16.1013 17.882 15.735 17.5032 15.734 17.0435C15.7241 16.5837 16.0884 16.2029 16.5426 16.1919H16.5525C17.0165 16.1919 17.3927 16.5707 17.3927 17.0405C17.3937 17.5102 17.0185 17.891 16.5554 17.892ZM11.6721 13.4203C11.6919 13.8801 12.068 14.2389 12.5222 14.2189C12.9665 14.1979 13.321 13.8181 13.3012 13.3583C13.2903 12.9085 12.925 12.5587 12.4807 12.5597C12.0266 12.5797 11.6711 12.9605 11.6721 13.4203ZM12.5262 17.8471C12.072 17.8671 11.6968 17.5082 11.6761 17.0485C11.6761 16.5887 12.0305 16.2089 12.4847 16.1879C12.929 16.1869 13.2953 16.5367 13.3052 16.9855C13.3259 17.4463 12.9705 17.8261 12.5262 17.8471ZM7.60433 13.4553C7.62408 13.915 8.00025 14.2749 8.45442 14.2539C8.89872 14.2339 9.25317 13.8531 9.23243 13.3933C9.22256 12.9435 8.85725 12.5937 8.41196 12.5947C7.95779 12.6147 7.60334 12.9955 7.60433 13.4553ZM8.45837 17.8521C8.0042 17.8731 7.62901 17.5132 7.60828 17.0535C7.60729 16.5937 7.96273 16.2129 8.4169 16.1929C8.8612 16.1919 9.2275 16.5417 9.23737 16.9915C9.2581 17.4513 8.90365 17.8321 8.45837 17.8521Z" fill="#1E1E1E"/>
</svg>
