<svg width="32" height="32" viewBox="0 0 32 32" fill="none" xmlns="http://www.w3.org/2000/svg">
<rect width="32" height="32" rx="4" fill="#EBF6F2"/>
<path d="M16 8.25C11.4439 8.25 7.75 11.9439 7.75 16.5C7.75 21.0561 11.4439 24.75 16 24.75C20.5561 24.75 24.25 21.0561 24.25 16.5C24.25 11.9439 20.5561 8.25 16 8.25ZM19.8077 17.7692H16C15.8317 17.7692 15.6703 17.7024 15.5513 17.5834C15.4322 17.4643 15.3654 17.3029 15.3654 17.1346V11.4231C15.3654 11.2548 15.4322 11.0933 15.5513 10.9743C15.6703 10.8553 15.8317 10.7885 16 10.7885C16.1683 10.7885 16.3297 10.8553 16.4487 10.9743C16.5678 11.0933 16.6346 11.2548 16.6346 11.4231V16.5H19.8077C19.976 16.5 20.1374 16.5669 20.2564 16.6859C20.3754 16.8049 20.4423 16.9663 20.4423 17.1346C20.4423 17.3029 20.3754 17.4643 20.2564 17.5834C20.1374 17.7024 19.976 17.7692 19.8077 17.7692Z" fill="#002455"/>
</svg>
