<svg width="71" height="14" viewBox="0 0 71 14" fill="none" xmlns="http://www.w3.org/2000/svg">
<g clip-path="url(#clip0_501_9624)">
<path d="M11.2733 13.1249C11.1812 13.1253 11.0913 13.0966 11.0165 13.0429L7.49983 10.4934L3.98315 13.0429C3.90802 13.0974 3.8175 13.1266 3.72469 13.1262C3.63188 13.1259 3.54158 13.0961 3.46684 13.041C3.39211 12.986 3.33681 12.9086 3.30895 12.8201C3.28109 12.7315 3.28211 12.6364 3.31186 12.5485L4.68342 8.48606L1.12873 6.04837C1.05174 5.99562 0.993623 5.91964 0.962885 5.83152C0.932148 5.7434 0.930395 5.64775 0.957885 5.55856C0.985375 5.46938 1.04067 5.39131 1.11568 5.33579C1.19069 5.28026 1.2815 5.25017 1.37483 5.24993H5.76022L7.08366 1.17708C7.11216 1.08915 7.16779 1.0125 7.24256 0.958147C7.31733 0.90379 7.40739 0.874512 7.49983 0.874512C7.59226 0.874512 7.68233 0.90379 7.75709 0.958147C7.83186 1.0125 7.88749 1.08915 7.916 1.17708L9.23944 5.2513H13.6248C13.7183 5.25125 13.8093 5.28113 13.8845 5.33655C13.9598 5.39197 14.0153 5.47002 14.0429 5.55928C14.0706 5.64854 14.069 5.74431 14.0382 5.83256C14.0075 5.92082 13.9494 5.99692 13.8723 6.04973L10.3162 8.48606L11.687 12.5474C11.7092 12.6132 11.7154 12.6833 11.7052 12.7519C11.695 12.8206 11.6686 12.8858 11.6281 12.9422C11.5877 12.9986 11.5345 13.0446 11.4728 13.0764C11.411 13.1082 11.3427 13.1248 11.2733 13.1249Z" fill="#BD965C"/>
</g>
<g clip-path="url(#clip1_501_9624)">
<path d="M25.2733 13.1249C25.1812 13.1253 25.0913 13.0966 25.0165 13.0429L21.4998 10.4934L17.9831 13.0429C17.908 13.0974 17.8175 13.1266 17.7247 13.1262C17.6319 13.1259 17.5416 13.0961 17.4668 13.041C17.3921 12.986 17.3368 12.9086 17.309 12.8201C17.2811 12.7315 17.2821 12.6364 17.3119 12.5485L18.6834 8.48606L15.1287 6.04837C15.0517 5.99562 14.9936 5.91964 14.9629 5.83152C14.9321 5.7434 14.9304 5.64775 14.9579 5.55856C14.9854 5.46938 15.0407 5.39131 15.1157 5.33579C15.1907 5.28026 15.2815 5.25017 15.3748 5.24993H19.7602L21.0837 1.17708C21.1122 1.08915 21.1678 1.0125 21.2426 0.958147C21.3173 0.90379 21.4074 0.874512 21.4998 0.874512C21.5923 0.874512 21.6823 0.90379 21.7571 0.958147C21.8319 1.0125 21.8875 1.08915 21.916 1.17708L23.2394 5.2513H27.6248C27.7183 5.25125 27.8093 5.28113 27.8845 5.33655C27.9598 5.39197 28.0153 5.47002 28.0429 5.55928C28.0706 5.64854 28.069 5.74431 28.0382 5.83256C28.0075 5.92082 27.9494 5.99692 27.8723 6.04973L24.3162 8.48606L25.687 12.5474C25.7092 12.6132 25.7154 12.6833 25.7052 12.7519C25.695 12.8206 25.6686 12.8858 25.6281 12.9422C25.5877 12.9986 25.5345 13.0446 25.4728 13.0764C25.411 13.1082 25.3427 13.1248 25.2733 13.1249Z" fill="#BD965C"/>
</g>
<g clip-path="url(#clip2_501_9624)">
<path d="M39.2733 13.1249C39.1812 13.1253 39.0913 13.0966 39.0165 13.0429L35.4998 10.4934L31.9831 13.0429C31.908 13.0974 31.8175 13.1266 31.7247 13.1262C31.6319 13.1259 31.5416 13.0961 31.4668 13.041C31.3921 12.986 31.3368 12.9086 31.309 12.8201C31.2811 12.7315 31.2821 12.6364 31.3119 12.5485L32.6834 8.48606L29.1287 6.04837C29.0517 5.99562 28.9936 5.91964 28.9629 5.83152C28.9321 5.7434 28.9304 5.64775 28.9579 5.55856C28.9854 5.46938 29.0407 5.39131 29.1157 5.33579C29.1907 5.28026 29.2815 5.25017 29.3748 5.24993H33.7602L35.0837 1.17708C35.1122 1.08915 35.1678 1.0125 35.2426 0.958147C35.3173 0.90379 35.4074 0.874512 35.4998 0.874512C35.5923 0.874512 35.6823 0.90379 35.7571 0.958147C35.8319 1.0125 35.8875 1.08915 35.916 1.17708L37.2394 5.2513H41.6248C41.7183 5.25125 41.8093 5.28113 41.8845 5.33655C41.9598 5.39197 42.0153 5.47002 42.0429 5.55928C42.0706 5.64854 42.069 5.74431 42.0382 5.83256C42.0075 5.92082 41.9494 5.99692 41.8723 6.04973L38.3162 8.48606L39.687 12.5474C39.7092 12.6132 39.7154 12.6833 39.7052 12.7519C39.695 12.8206 39.6686 12.8858 39.6281 12.9422C39.5877 12.9986 39.5345 13.0446 39.4728 13.0764C39.411 13.1082 39.3427 13.1248 39.2733 13.1249Z" fill="#BD965C"/>
</g>
<g clip-path="url(#clip3_501_9624)">
<path d="M53.2733 13.1249C53.1812 13.1253 53.0913 13.0966 53.0165 13.0429L49.4998 10.4934L45.9831 13.0429C45.908 13.0974 45.8175 13.1266 45.7247 13.1262C45.6319 13.1259 45.5416 13.0961 45.4668 13.041C45.3921 12.986 45.3368 12.9086 45.309 12.8201C45.2811 12.7315 45.2821 12.6364 45.3119 12.5485L46.6834 8.48606L43.1287 6.04837C43.0517 5.99562 42.9936 5.91964 42.9629 5.83152C42.9321 5.7434 42.9304 5.64775 42.9579 5.55856C42.9854 5.46938 43.0407 5.39131 43.1157 5.33579C43.1907 5.28026 43.2815 5.25017 43.3748 5.24993H47.7602L49.0837 1.17708C49.1122 1.08915 49.1678 1.0125 49.2426 0.958147C49.3173 0.90379 49.4074 0.874512 49.4998 0.874512C49.5923 0.874512 49.6823 0.90379 49.7571 0.958147C49.8319 1.0125 49.8875 1.08915 49.916 1.17708L51.2394 5.2513H55.6248C55.7183 5.25125 55.8093 5.28113 55.8845 5.33655C55.9598 5.39197 56.0153 5.47002 56.0429 5.55928C56.0706 5.64854 56.069 5.74431 56.0382 5.83256C56.0075 5.92082 55.9494 5.99692 55.8723 6.04973L52.3162 8.48606L53.687 12.5474C53.7092 12.6132 53.7154 12.6833 53.7052 12.7519C53.695 12.8206 53.6686 12.8858 53.6281 12.9422C53.5877 12.9986 53.5345 13.0446 53.4728 13.0764C53.411 13.1082 53.3427 13.1248 53.2733 13.1249Z" fill="#BD965C"/>
</g>
<g clip-path="url(#clip4_501_9624)">
<path opacity="0.2" d="M67.2733 13.1249C67.1812 13.1253 67.0913 13.0966 67.0165 13.0429L63.4998 10.4934L59.9831 13.0429C59.908 13.0974 59.8175 13.1266 59.7247 13.1262C59.6319 13.1259 59.5416 13.0961 59.4668 13.041C59.3921 12.986 59.3368 12.9086 59.309 12.8201C59.2811 12.7315 59.2821 12.6364 59.3119 12.5485L60.6834 8.48606L57.1287 6.04837C57.0517 5.99562 56.9936 5.91964 56.9629 5.83152C56.9321 5.7434 56.9304 5.64775 56.9579 5.55856C56.9854 5.46938 57.0407 5.39131 57.1157 5.33579C57.1907 5.28026 57.2815 5.25017 57.3748 5.24993H61.7602L63.0837 1.17708C63.1122 1.08915 63.1678 1.0125 63.2426 0.958147C63.3173 0.90379 63.4074 0.874512 63.4998 0.874512C63.5923 0.874512 63.6823 0.90379 63.7571 0.958147C63.8319 1.0125 63.8875 1.08915 63.916 1.17708L65.2394 5.2513H69.6248C69.7183 5.25125 69.8093 5.28113 69.8845 5.33655C69.9598 5.39197 70.0153 5.47002 70.0429 5.55928C70.0706 5.64854 70.069 5.74431 70.0382 5.83256C70.0075 5.92082 69.9494 5.99692 69.8723 6.04973L66.3162 8.48606L67.687 12.5474C67.7092 12.6132 67.7154 12.6833 67.7052 12.7519C67.695 12.8206 67.6686 12.8858 67.6281 12.9422C67.5877 12.9986 67.5345 13.0446 67.4728 13.0764C67.411 13.1082 67.3427 13.1248 67.2733 13.1249Z" fill="#002455"/>
<path d="M59.7247 13.1262C59.8175 13.1266 59.908 13.0974 59.9831 13.0429L63.0837 10.7951V1.17708L61.7602 5.24993H57.3748C57.2815 5.25017 57.1907 5.28026 57.1157 5.33579C57.0407 5.39131 56.9854 5.46938 56.9579 5.55857C56.9304 5.64775 56.9321 5.7434 56.9629 5.83152C56.9936 5.91964 57.0517 5.99562 57.1287 6.04837L60.6834 8.48606L59.3119 12.5485C59.2821 12.6364 59.2811 12.7315 59.309 12.8201C59.3368 12.9086 59.3921 12.986 59.4668 13.041C59.5416 13.0961 59.6319 13.1259 59.7247 13.1262Z" fill="#BD965C"/>
</g>
<defs>
<clipPath id="clip0_501_9624">
<rect width="14" height="14" fill="white" transform="translate(0.5)"/>
</clipPath>
<clipPath id="clip1_501_9624">
<rect width="14" height="14" fill="white" transform="translate(14.5)"/>
</clipPath>
<clipPath id="clip2_501_9624">
<rect width="14" height="14" fill="white" transform="translate(28.5)"/>
</clipPath>
<clipPath id="clip3_501_9624">
<rect width="14" height="14" fill="white" transform="translate(42.5)"/>
</clipPath>
<clipPath id="clip4_501_9624">
<rect width="14" height="14" fill="white" transform="translate(56.5)"/>
</clipPath>
</defs>
</svg>
