<svg width="20" height="20" viewBox="0 0 20 20" fill="none" xmlns="http://www.w3.org/2000/svg">
<path d="M14.8103 4.06007L2.05422 16.8476L1.28125 18.7188L3.1525 17.9459L15.94 5.18976L14.8103 4.06007ZM17.3627 1.5082L16.81 2.06039L17.9397 3.19007L18.4923 2.63742C18.6374 2.4923 18.7188 2.29554 18.7188 2.09039C18.7188 1.88523 18.6374 1.68847 18.4923 1.54335L18.4572 1.5082C18.3853 1.43632 18.3 1.37931 18.2061 1.34041C18.1122 1.30152 18.0116 1.28149 17.9099 1.28149C17.8083 1.28149 17.7076 1.30152 17.6137 1.34041C17.5198 1.37931 17.4345 1.43632 17.3627 1.5082Z" stroke="black" stroke-width="2.0625" stroke-linecap="round" stroke-linejoin="round"/>
</svg>
